<!DOCTYPE svg PUBLIC "-//W3C//DTD SVG 1.1//EN" "http://www.w3.org/Graphics/SVG/1.1/DTD/svg11.dtd">
<svg version="1.1" id="Layer_2" xmlns="http://www.w3.org/2000/svg" xmlns:xlink="http://www.w3.org/1999/xlink" width="297.961px" height="283.377px">
<radialGradient id="SVGID_1_" cx="148.9805" cy="141.6885" r="135" gradientUnits="userSpaceOnUse">
	<stop  offset="0" style="stop-color:#CC0000;stop-opacity:0.4"/>
	<stop  offset="0.2596" style="stop-color:#CD0202;stop-opacity:0.2961"/>
	<stop  offset="0.4053" style="stop-color:#CF0A0A;stop-opacity:0.2379"/>
	<stop  offset="0.5228" style="stop-color:#D21818;stop-opacity:0.1909"/>
	<stop  offset="0.6253" style="stop-color:#D72C2C;stop-opacity:0.1499"/>
	<stop  offset="0.718" style="stop-color:#DD4646;stop-opacity:0.1128"/>
	<stop  offset="0.8036" style="stop-color:#E56565;stop-opacity:0.0786"/>
	<stop  offset="0.8838" style="stop-color:#EE8A8A;stop-opacity:0.0465"/>
	<stop  offset="0.9577" style="stop-color:#F8B4B4;stop-opacity:0.0169"/>
	<stop  offset="1" style="stop-color:#FFD0D0;stop-opacity:0"/>
</radialGradient>
<circle fill="url(#SVGID_1_)" cx="148.98" cy="141.688" r="135"/>
<g>
	
		<radialGradient id="SVGID_2_" cx="148.9805" cy="142.6885" r="145.3802" gradientTransform="matrix(1 0 0 -1 0 284.377)" gradientUnits="userSpaceOnUse">
		<stop  offset="0" style="stop-color:#FC5151"/>
		<stop  offset="0.1567" style="stop-color:#E33636"/>
		<stop  offset="0.3369" style="stop-color:#CD1E1E"/>
		<stop  offset="0.5289" style="stop-color:#BE0D0D"/>
		<stop  offset="0.7387" style="stop-color:#B50303"/>
		<stop  offset="1" style="stop-color:#B20000"/>
	</radialGradient>
	<polygon fill="url(#SVGID_2_)" points="148.981,0 191.828,97.672 297.961,108.241 218.311,179.174 241.057,283.377 
		148.981,229.545 56.906,283.377 79.65,179.174 0,108.241 106.132,97.672 	"/>
	<path id="path6" fill="#FFD600" d="M148.976,97.247c11.592,4.129,22.323,10.642,31.375,18.978
		c8.682,8.09,16.047,18.002,19.555,29.454c2.375,7.365,1.885,15.322,0.314,22.797c-1.568,6.963-4.636,13.604-9.097,19.188
		c5.062,4.946,10.074,9.942,15.146,14.879c-0.676,2.529-1.711,5.113-3.789,6.815c-1.737,1.5-3.963,2.228-6.153,2.771
		c-4.955-5.148-9.937-10.271-14.894-15.414c-6.176,4.219-13.627,6.441-21.067,6.77c-9.374,0.414-18.744-2.606-26.391-7.975
		c-4.125-2.832-7.842-6.223-11.252-9.875c-0.584,0.576-1.221,1.09-1.876,1.582c0.162,1.225,0.338,2.449,0.507,3.676
		c-1.28,0.072-2.558,0.385-3.633,1.107c-3.318,2.104-5.622,5.367-7.977,8.432c-2.92,3.789-5.545,7.998-9.615,10.685
		c-2.466,1.522-6.116,0.879-7.626-1.683c-1.579-2.512-0.668-5.756,1.034-7.959c4.158-6.113,11.583-8.725,16.231-14.354
		c1.208-1.513,2.123-3.269,2.577-5.154c1.188,0.076,2.375,0.154,3.563,0.229c1.006-1.02,2.017-2.034,3.019-3.057
		c1.118-0.031,2.256,0.09,3.359-0.127c1.152-1.016,2.069-2.264,3.11-3.389c1.139,0.318,1.786,1.387,2.61,2.15
		c5.095,4.641,10.921,8.684,17.562,10.746c8.493,2.723,17.952,1.854,25.917-2.103c-15.955-16.426-31.854-32.906-47.787-49.356
		c-3.573,3.762-7.132,7.539-10.755,11.251c-4.426-4.516-8.895-8.987-13.343-13.479c8.385-8.393,16.862-16.692,25.293-25.038
		c7.288,1.984,14.568,4.004,21.863,5.964c-4.985,4.525-10.053,8.96-15.056,13.467c16.624,16.297,33.165,32.68,49.815,48.951
		c4.02-4.891,6.28-11.116,6.59-17.422c0.565-8.342-1.363-16.64-4.113-24.465c-3.889-10.328-11.318-18.83-19.396-26.144
		C159.549,105.662,154.346,101.342,148.976,97.247z"/>
</g>
</svg>
